<svg width="20" height="20" viewBox="0 0 20 20" fill="none" xmlns="http://www.w3.org/2000/svg">
<path d="M3.3335 1.66669L10.4168 2.08335H16.2502V17.5H3.3335V12.9167V1.66669Z" fill="url(#paint0_linear_6130_39288)"/>
<path d="M2.49984 14.3335V13.75C2.49984 13.2897 2.87293 12.9166 3.33317 12.9166C3.79341 12.9166 4.1665 13.2897 4.1665 13.75V14.3335C4.1665 15.0471 4.16679 15.5323 4.19743 15.9074C4.22728 16.2727 4.28157 16.4598 4.34798 16.5901C4.50776 16.9037 4.76279 17.1587 5.07633 17.3185C5.20667 17.3849 5.39377 17.4392 5.75911 17.4691C6.13415 17.4997 6.61935 17.5 7.33301 17.5H12.6667C13.3803 17.5 13.8655 17.4997 14.2406 17.4691C14.6059 17.4392 14.793 17.3849 14.9233 17.3185C15.2369 17.1587 15.4919 16.9037 15.6517 16.5901C15.7181 16.4598 15.7724 16.2727 15.8022 15.9074C15.8329 15.5323 15.8332 15.0471 15.8332 14.3335V5.66648C15.8332 4.95283 15.8329 4.46762 15.8022 4.09259C15.7724 3.72725 15.7181 3.54014 15.6517 3.40981C15.4919 3.09627 15.2369 2.84124 14.9233 2.68146C14.793 2.61505 14.6059 2.56076 14.2406 2.53091C13.8655 2.50027 13.3803 2.49998 12.6667 2.49998H10.4165C9.95627 2.49998 9.58317 2.12689 9.58317 1.66665C9.58317 1.20641 9.95627 0.833315 10.4165 0.833315H12.6667C13.3529 0.833315 13.9178 0.832463 14.3765 0.869936C14.8448 0.90821 15.2758 0.990208 15.6802 1.19627C16.3073 1.51583 16.8173 2.02589 17.1369 2.65298C17.3429 3.0574 17.4249 3.48831 17.4632 3.95669C17.5007 4.41534 17.4998 4.98024 17.4998 5.66648V14.3335C17.4998 15.0197 17.5007 15.5846 17.4632 16.0433C17.4249 16.5117 17.3429 16.9426 17.1369 17.347C16.8173 17.9741 16.3073 18.4841 15.6802 18.8037C15.2758 19.0098 14.8448 19.0918 14.3765 19.13C13.9178 19.1675 13.3529 19.1666 12.6667 19.1666H7.33301C6.64677 19.1666 6.08186 19.1675 5.62321 19.13C5.15483 19.0918 4.72392 19.0098 4.3195 18.8037C3.69241 18.4841 3.18235 17.9741 2.86279 17.347C2.65673 16.9426 2.57473 16.5117 2.53646 16.0433C2.49899 15.5846 2.49984 15.0197 2.49984 14.3335ZM1.6665 8.33331V4.99998C1.6665 4.53974 2.0396 4.16665 2.49984 4.16665C2.96007 4.16665 3.33317 4.53974 3.33317 4.99998V8.33331C3.33317 9.25379 4.07936 9.99998 4.99984 9.99998C5.92031 9.99998 6.6665 9.25379 6.6665 8.33331V3.74998C6.6665 3.51986 6.47996 3.33331 6.24984 3.33331C6.01972 3.33331 5.83317 3.51986 5.83317 3.74998V8.33331C5.83317 8.79355 5.46007 9.16665 4.99984 9.16665C4.5396 9.16665 4.1665 8.79355 4.1665 8.33331V3.74998C4.1665 2.59939 5.09924 1.66665 6.24984 1.66665C7.40043 1.66665 8.33317 2.59939 8.33317 3.74998V8.33331C8.33317 10.1743 6.84079 11.6666 4.99984 11.6666C3.15889 11.6666 1.6665 10.1743 1.6665 8.33331Z" fill="#0F3C56"/>
<defs>
<linearGradient id="paint0_linear_6130_39288" x1="16.6668" y1="18.75" x2="7.0835" y2="7.50002" gradientUnits="userSpaceOnUse">
<stop stop-color="#0F3C56"/>
<stop offset="0.932497" stop-color="#0F3C56" stop-opacity="0"/>
</linearGradient>
</defs>
</svg>
