<svg width="56" height="56" viewBox="0 0 56 56" fill="none" xmlns="http://www.w3.org/2000/svg">
<path d="M36.1133 4.66406C36.684 4.66406 36.9697 4.66405 37.2383 4.72852C37.4763 4.78568 37.7044 4.8799 37.9131 5.00781C38.1484 5.15209 38.3506 5.35352 38.7539 5.75684L50.2402 17.2432C50.6436 17.6465 50.845 17.8487 50.9893 18.084C51.1172 18.2927 51.2114 18.5208 51.2686 18.7588C51.333 19.0273 51.333 19.3131 51.333 19.8838V36.1104C51.333 36.6811 51.333 36.9668 51.2686 37.2354C51.2114 37.4734 51.1172 37.7014 50.9893 37.9102C50.845 38.1455 50.6436 38.3477 50.2402 38.751L38.7539 50.2373C38.3506 50.6406 38.1484 50.842 37.9131 50.9863C37.7044 51.1142 37.4763 51.2085 37.2383 51.2656C36.9697 51.3301 36.684 51.3301 36.1133 51.3301H19.8867C19.316 51.3301 19.0303 51.3301 18.7617 51.2656C18.5237 51.2085 18.2956 51.1142 18.0869 50.9863C17.8516 50.842 17.6494 50.6406 17.2461 50.2373L5.75977 38.751C5.35645 38.3477 5.15502 38.1455 5.01074 37.9102C4.88283 37.7014 4.78861 37.4734 4.73145 37.2354C4.66698 36.9668 4.66699 36.6811 4.66699 36.1104V19.8838C4.66699 19.3131 4.66698 19.0273 4.73145 18.7588C4.78861 18.5208 4.88283 18.2927 5.01074 18.084C5.15502 17.8487 5.35645 17.6465 5.75977 17.2432L17.2461 5.75684C17.6494 5.35352 17.8516 5.15209 18.0869 5.00781C18.2956 4.8799 18.5237 4.78568 18.7617 4.72852C19.0303 4.66405 19.316 4.66406 19.8867 4.66406H36.1133ZM28 34.9971C26.7114 34.9971 25.6672 36.0416 25.667 37.3301C25.667 38.6187 26.7113 39.6641 28 39.6641H28.0234C29.3121 39.664 30.3564 38.6187 30.3564 37.3301C30.3563 36.0416 29.3119 34.9971 28.0234 34.9971H28ZM28 16.3301C26.7113 16.3301 25.667 17.3754 25.667 18.6641V27.9971C25.667 29.2857 26.7113 30.3301 28 30.3301C29.2887 30.3301 30.333 29.2857 30.333 27.9971V18.6641C30.333 17.3754 29.2887 16.3301 28 16.3301Z" fill="url(#paint0_linear_7583_241817)"/>
<defs>
<linearGradient id="paint0_linear_7583_241817" x1="9.33359" y1="9.33066" x2="47.8331" y2="60.6633" gradientUnits="userSpaceOnUse">
<stop stop-color="#981C1C"/>
<stop offset="1" stop-color="#981C1C" stop-opacity="0.8"/>
</linearGradient>
</defs>
</svg>
