<svg width="24" height="24" viewBox="0 0 24 24" fill="none" xmlns="http://www.w3.org/2000/svg">
<mask id="mask0_10987_42" style="mask-type:alpha" maskUnits="userSpaceOnUse" x="1" y="0" width="23" height="23">
<path opacity="0.5" fill-rule="evenodd" clip-rule="evenodd" d="M6.7587 3L11 3C11.5523 3 12 3.44772 12 4C12 4.55229 11.5523 5 11 5H6.8C5.94342 5 5.36113 5.00078 4.91104 5.03755C4.47262 5.07337 4.24842 5.1383 4.09202 5.21799C3.7157 5.40973 3.40973 5.7157 3.21799 6.09202C3.1383 6.24842 3.07337 6.47262 3.03755 6.91104C3.00078 7.36113 3 7.94342 3 8.8V17.2C3 18.0566 3.00078 18.6389 3.03755 19.089C3.07337 19.5274 3.1383 19.7516 3.21799 19.908C3.40973 20.2843 3.7157 20.5903 4.09202 20.782C4.24842 20.8617 4.47262 20.9266 4.91104 20.9624C5.36113 20.9992 5.94342 21 6.8 21H15.2C16.0566 21 16.6389 20.9992 17.089 20.9624C17.5274 20.9266 17.7516 20.8617 17.908 20.782C18.2843 20.5903 18.5903 20.2843 18.782 19.908C18.8617 19.7516 18.9266 19.5274 18.9624 19.089C18.9992 18.6389 19 18.0566 19 17.2V13C19 12.4477 19.4477 12 20 12C20.5523 12 21 12.4477 21 13V17.2413C21 18.0463 21 18.7106 20.9558 19.2518C20.9099 19.8139 20.8113 20.3306 20.564 20.816C20.1805 21.5686 19.5686 22.1805 18.816 22.564C18.3306 22.8113 17.8139 22.9099 17.2518 22.9558C16.7106 23 16.0463 23 15.2413 23H6.75868C5.95372 23 5.28936 23 4.74817 22.9558C4.18608 22.9099 3.66937 22.8113 3.18404 22.564C2.43139 22.1805 1.81947 21.5686 1.43598 20.816C1.18868 20.3306 1.09012 19.8139 1.04419 19.2518C0.999977 18.7106 0.999988 18.0463 1 17.2413V8.7587C0.999988 7.95373 0.999977 7.28937 1.04419 6.74818C1.09012 6.18608 1.18868 5.66937 1.43597 5.18404C1.81947 4.43139 2.43139 3.81947 3.18404 3.43597C3.66937 3.18868 4.18608 3.09012 4.74817 3.04419C5.28937 2.99998 5.95373 2.99999 6.7587 3Z" fill="#0F3C56"/>
<path fill-rule="evenodd" clip-rule="evenodd" d="M17.7929 1.79287C19.0119 0.573924 20.9882 0.573926 22.2071 1.79288C23.4261 3.01183 23.4261 4.98814 22.2071 6.20709L12.6444 15.7698C12.6246 15.7896 12.605 15.8093 12.5855 15.8288C12.2981 16.1168 12.0446 16.3707 11.7391 16.5579C11.4707 16.7224 11.178 16.8436 10.8719 16.9171C10.5235 17.0007 10.1647 17.0004 9.75782 17C9.73028 17 9.70252 17 9.67452 17H7.99998C7.44769 17 6.99998 16.5523 6.99998 16V14.3255C6.99998 14.2975 6.99995 14.2697 6.99993 14.2422C6.99955 13.8353 6.99922 13.4765 7.08287 13.1281C7.15636 12.822 7.27757 12.5293 7.44206 12.2609C7.6293 11.9554 7.88321 11.7019 8.17119 11.4145C8.19069 11.395 8.21034 11.3754 8.23013 11.3556L17.7929 1.79287ZM20.7929 3.20709C20.355 2.76919 19.645 2.76919 19.2071 3.20709L9.64435 12.7698C9.26479 13.1494 9.1948 13.2285 9.14734 13.3059C9.09251 13.3954 9.05211 13.4929 9.02761 13.595C9.00641 13.6833 8.99998 13.7887 8.99998 14.3255V15H9.67452C10.2113 15 10.3167 14.9936 10.405 14.9724C10.5071 14.9479 10.6046 14.9075 10.6941 14.8526C10.7715 14.8052 10.8506 14.7352 11.2302 14.3556L20.7929 4.79288C21.2308 4.35497 21.2308 3.64499 20.7929 3.20709Z" fill="#0F3C56"/>
</mask>
<g mask="url(#mask0_10987_42)">
<rect width="24" height="24" fill="#0F3C56"/>
</g>
</svg>
